<svg width="15" height="14" viewBox="0 0 15 14" fill="none" xmlns="http://www.w3.org/2000/svg">
<g clip-path="url(#clip0_6_471)">
<path fill-rule="evenodd" clip-rule="evenodd" d="M7.16797 0C3.30198 0 0.167972 3.134 0.167972 7C0.167972 10.866 3.30198 14 7.16797 14C11.034 14 14.168 10.866 14.168 7C14.168 3.134 11.034 0 7.16797 0ZM7.42099 0.523807C8.21955 0.636191 8.97996 1.27788 9.57023 2.35109C9.74145 2.66239 9.89594 3.00631 10.0306 3.37765C9.22797 3.17596 8.34628 3.05705 7.42099 3.03865V0.523807ZM10.6222 3.54578C10.4548 3.02035 10.25 2.53694 10.0136 2.10723C9.72101 1.57521 9.37374 1.11578 8.98248 0.762919C11.1101 1.38083 12.7871 3.05788 13.405 5.18549C13.0522 4.79423 12.5928 4.44696 12.0607 4.15436C11.631 3.918 11.1476 3.71319 10.6222 3.54578ZM10.7903 4.13738C10.992 4.94 11.1109 5.82169 11.1293 6.74698H13.6442C13.5318 5.94839 12.8901 5.18798 11.8169 4.59774C11.5056 4.42652 11.1617 4.27203 10.7903 4.13738ZM10.6232 6.74698C10.6023 5.7372 10.4569 4.78919 10.2164 3.95157C9.37878 3.71105 8.43074 3.56566 7.42099 3.54476V4.63778C7.79769 5.60217 8.56601 6.37042 9.53044 6.74698H10.6232ZM11.1293 7.25302H13.6442C13.5318 8.05161 12.8901 8.81199 11.8169 9.40226C11.5056 9.57348 11.1617 9.72797 10.7903 9.86261C10.992 9.05999 11.1109 8.17831 11.1293 7.25302ZM10.2164 10.0484C10.4569 9.21081 10.6023 8.2628 10.6232 7.25302H9.53044C8.56601 7.62958 7.79766 8.39783 7.42099 9.36222V10.4552C8.43074 10.4343 9.37878 10.2889 10.2164 10.0484ZM10.6222 10.4542C11.1476 10.2868 11.631 10.082 12.0607 9.84564C12.5928 9.55304 13.0522 9.20577 13.405 8.8145C12.7871 10.9421 11.1101 12.6192 8.98248 13.2371C9.37374 12.8842 9.72101 12.4248 10.0136 11.8928C10.25 11.4631 10.4548 10.9796 10.6222 10.4542ZM7.42099 13.4762C8.21955 13.3638 8.97996 12.7221 9.57023 11.6489C9.74145 11.3376 9.89594 10.9937 10.0306 10.6224C9.22797 10.824 8.34628 10.943 7.42099 10.9613V13.4762ZM5.35347 13.2371C4.9622 12.8842 4.61493 12.4248 4.3223 11.8928C4.08598 11.4631 3.88116 10.9796 3.71375 10.4542C3.18833 10.2868 2.70491 10.082 2.27518 9.84564C1.74318 9.55304 1.28374 9.20577 0.930901 8.8145C1.54879 10.9421 3.22585 12.6192 5.35347 13.2371ZM4.30536 10.6224C4.44 10.9937 4.59449 11.3376 4.76571 11.6489C5.35595 12.7221 6.11636 13.3638 6.91496 13.4762V10.9613C5.98966 10.943 5.10798 10.824 4.30536 10.6224ZM3.54561 9.86261C3.1743 9.72797 2.83035 9.57348 2.51906 9.40226C1.44586 8.81199 0.804166 8.05161 0.691781 7.25302H3.20664C3.22501 8.17831 3.34394 9.05999 3.54561 9.86261ZM3.71274 7.25302C3.73363 8.2628 3.87902 9.21081 4.11954 10.0484C4.95716 10.2889 5.90517 10.4343 6.91496 10.4552V9.36302C6.53839 8.39828 5.7699 7.62968 4.80519 7.25302H3.71274ZM3.20664 6.74698H0.691781C0.804166 5.94839 1.44586 5.18798 2.51906 4.59774C2.83035 4.42652 3.1743 4.27203 3.54561 4.13738C3.34394 4.94 3.22501 5.82169 3.20664 6.74698ZM4.11954 3.95157C3.87902 4.78919 3.73363 5.7372 3.71274 6.74698H4.80519C5.7699 6.37031 6.53839 5.60172 6.91496 4.63697V3.54476C5.90517 3.56566 4.95716 3.71105 4.11954 3.95157ZM3.71375 3.54578C3.18833 3.71319 2.70491 3.918 2.27518 4.15436C1.74318 4.44696 1.28374 4.79423 0.930901 5.18549C1.54879 3.05788 3.22585 1.38083 5.35347 0.762919C4.9622 1.11578 4.61493 1.57521 4.3223 2.10723C4.08598 2.53694 3.88116 3.02035 3.71375 3.54578ZM6.91496 0.523807C6.11636 0.636191 5.35595 1.27788 4.76571 2.35109C4.59449 2.66239 4.44 3.00631 4.30536 3.37765C5.10798 3.17596 5.98966 3.05705 6.91496 3.03865V0.523807Z" fill="black"/>
</g>
<defs>
<clipPath id="clip0_6_471">
<rect width="14.35" height="14" fill="white" transform="matrix(-1 0 0 1 14.3496 0)"/>
</clipPath>
</defs>
</svg>
