<svg width="31" height="30" viewBox="0 0 31 30" fill="none" xmlns="http://www.w3.org/2000/svg">
<g clip-path="url(#clip0_7_463)">
<path fill-rule="evenodd" clip-rule="evenodd" d="M15.3613 0C7.07706 0 0.361334 6.71572 0.361334 15C0.361334 23.2843 7.07706 30 15.3613 30C23.6456 30 30.3613 23.2843 30.3613 15C30.3613 6.71572 23.6456 0 15.3613 0ZM15.9035 1.12244C17.6147 1.36327 19.2442 2.73831 20.509 5.03805C20.8759 5.70512 21.207 6.4421 21.4955 7.23783C19.7756 6.80563 17.8863 6.55082 15.9035 6.5114V1.12244ZM22.7632 7.5981C22.4045 6.47219 21.9656 5.4363 21.4591 4.51549C20.8321 3.37544 20.088 2.39096 19.2496 1.63483C23.8087 2.95892 27.4024 6.55259 28.7265 11.1118C27.9704 10.2733 26.9859 9.5292 25.8458 8.9022C24.925 8.39573 23.8891 7.95683 22.7632 7.5981ZM23.1235 8.86583C23.5557 10.5857 23.8105 12.475 23.8499 14.4578H29.2389C28.9981 12.7465 27.623 11.1171 25.3233 9.8523C24.6562 9.4854 23.9192 9.15435 23.1235 8.86583ZM22.7653 14.4578C22.7206 12.294 22.4091 10.2626 21.8937 8.46765C20.0988 7.95225 18.0673 7.6407 15.9035 7.59593V9.9381C16.7107 12.0047 18.3571 13.6509 20.4238 14.4578H22.7653ZM23.8499 15.5422H29.2389C28.9981 17.2535 27.623 18.8828 25.3233 20.1477C24.6562 20.5146 23.9192 20.8456 23.1235 21.1342C23.5557 19.4143 23.8105 17.525 23.8499 15.5422ZM21.8937 21.5324C22.4091 19.7375 22.7206 17.706 22.7653 15.5422H20.4238C18.3571 16.3491 16.7107 17.9954 15.9035 20.0619V22.4041C18.0673 22.3593 20.0988 22.0478 21.8937 21.5324ZM22.7632 22.4019C23.8891 22.0432 24.925 21.6043 25.8458 21.0978C26.9859 20.4708 27.9704 19.7266 28.7265 18.8882C27.4024 23.4474 23.8087 27.0411 19.2496 28.3652C20.088 27.609 20.8321 26.6246 21.4591 25.4845C21.9656 24.5637 22.4045 23.5278 22.7632 22.4019ZM15.9035 28.8775C17.6147 28.6367 19.2442 27.2617 20.509 24.962C20.8759 24.2949 21.207 23.5579 21.4955 22.7622C19.7756 23.1943 17.8863 23.4492 15.9035 23.4886V28.8775ZM11.4731 28.3652C10.6347 27.609 9.89053 26.6246 9.26346 25.4845C8.75706 24.5637 8.31816 23.5278 7.95943 22.4019C6.83353 22.0432 5.79763 21.6043 4.87678 21.0978C3.73678 20.4708 2.75226 19.7266 1.99618 18.8882C3.32023 23.4474 6.91393 27.0411 11.4731 28.3652ZM9.22716 22.7622C9.51568 23.5579 9.84673 24.2949 10.2136 24.962C11.4784 27.2617 13.1079 28.6367 14.8192 28.8775V23.4886C12.8364 23.4492 10.9471 23.1943 9.22716 22.7622ZM7.59913 21.1342C6.80346 20.8456 6.06643 20.5146 5.39938 20.1477C3.09966 18.8828 1.72461 17.2535 1.48378 15.5422H6.87276C6.91213 17.525 7.16698 19.4143 7.59913 21.1342ZM7.95726 15.5422C8.00203 17.706 8.31358 19.7375 8.82898 21.5324C10.6239 22.0478 12.6553 22.3593 14.8192 22.4041V20.0636C14.0122 17.9963 12.3655 16.3493 10.2982 15.5422H7.95726ZM6.87276 14.4578H1.48378C1.72461 12.7465 3.09966 11.1171 5.39938 9.8523C6.06643 9.4854 6.80346 9.15435 7.59913 8.86583C7.16698 10.5857 6.91213 12.475 6.87276 14.4578ZM8.82898 8.46765C8.31358 10.2626 8.00203 12.294 7.95726 14.4578H10.2982C12.3655 13.6507 14.0122 12.0037 14.8192 9.93637V7.59593C12.6553 7.6407 10.6239 7.95225 8.82898 8.46765ZM7.95943 7.5981C6.83353 7.95683 5.79763 8.39573 4.87678 8.9022C3.73678 9.5292 2.75226 10.2733 1.99618 11.1118C3.32023 6.55259 6.91393 2.95892 11.4731 1.63483C10.6347 2.39096 9.89053 3.37544 9.26346 4.51549C8.75706 5.4363 8.31816 6.47219 7.95943 7.5981ZM14.8192 1.12244C13.1079 1.36327 11.4784 2.73831 10.2136 5.03805C9.84673 5.70513 9.51568 6.4421 9.22716 7.23783C10.9471 6.80563 12.8364 6.55082 14.8192 6.5114V1.12244Z" fill="#0865F1"/>
</g>
<defs>
<clipPath id="clip0_7_463">
<rect width="30.75" height="30" fill="white" transform="matrix(-1 0 0 1 30.75 0)"/>
</clipPath>
</defs>
</svg>
