<svg width="15" height="21" viewBox="0 0 15 21" fill="none" xmlns="http://www.w3.org/2000/svg">
<g opacity="0.6" clip-path="url(#clip0_13_506)">
<path d="M1.66667 20.3337C1.20833 20.3337 0.815833 20.1706 0.489167 19.8445C0.163055 19.5178 0 19.1253 0 18.667V7.00032H1.66667V18.667H10.8333V20.3337H1.66667ZM5 17.0003C4.54167 17.0003 4.14944 16.8373 3.82333 16.5112C3.49667 16.1845 3.33333 15.792 3.33333 15.3337V5.33366C3.33333 4.87533 3.49667 4.48283 3.82333 4.15616C4.14944 3.83005 4.54167 3.66699 5 3.66699H12.5C12.9583 3.66699 13.3508 3.83005 13.6775 4.15616C14.0036 4.48283 14.1667 4.87533 14.1667 5.33366V15.3337C14.1667 15.792 14.0036 16.1845 13.6775 16.5112C13.3508 16.8373 12.9583 17.0003 12.5 17.0003H5Z" fill="#FBFBFB"/>
</g>
<defs>
<clipPath id="clip0_13_506">
<rect width="14.1667" height="19.6667" fill="white" transform="translate(0 0.666992)"/>
</clipPath>
</defs>
</svg>
