<svg width="254" height="59" viewBox="0 0 254 59" fill="none" xmlns="http://www.w3.org/2000/svg">
<g clip-path="url(#clip0_193_817)">
<path d="M79.057 9.65845C78.1325 6.20834 75.425 3.48805 71.9911 2.55917C65.7178 0.834106 40.6242 0.834106 40.6242 0.834106C40.6242 0.834106 15.5306 0.834106 9.25724 2.49282C5.88941 3.42169 3.11592 6.20834 2.19142 9.65845C0.540527 15.9616 0.540527 29.0322 0.540527 29.0322C0.540527 29.0322 0.540527 42.1692 2.19142 48.406C3.11592 51.856 5.82339 54.5765 9.25724 55.5053C15.5967 57.2303 40.6242 57.2303 40.6242 57.2303C40.6242 57.2303 65.7178 57.2303 71.9911 55.5717C75.425 54.6427 78.1325 51.9224 79.057 48.4724C80.7079 42.1692 80.7079 29.0986 80.7079 29.0986C80.7079 29.0986 80.7739 15.9616 79.057 9.65845Z" fill="#121212"/>
<path d="M32.6357 41.1076L53.5031 29.0321L32.6357 16.9568V41.1076Z" fill="#F4F4F4"/>
<path d="M116.961 52.1876C115.376 51.126 114.253 49.4672 113.593 47.145C112.933 44.8892 112.603 41.8371 112.603 38.1217V33.0129C112.603 29.2308 112.999 26.1788 113.725 23.8566C114.518 21.5346 115.706 19.8757 117.291 18.8142C118.942 17.7526 121.055 17.2218 123.697 17.2218C126.272 17.2218 128.385 17.7526 129.97 18.8142C131.555 19.8757 132.677 21.6008 133.404 23.8566C134.13 26.1126 134.526 29.1646 134.526 33.0129V38.1217C134.526 41.9035 134.196 44.8892 133.47 47.2114C132.743 49.4672 131.621 51.1924 130.036 52.254C128.451 53.3154 126.272 53.8462 123.564 53.8462C120.791 53.78 118.546 53.2492 116.961 52.1876ZM125.876 46.6144C126.338 45.4864 126.536 43.5621 126.536 40.9747V29.9608C126.536 27.4394 126.338 25.5818 125.876 24.3874C125.413 23.1932 124.687 22.6624 123.564 22.6624C122.508 22.6624 121.715 23.2596 121.319 24.3874C120.857 25.5818 120.659 27.4394 120.659 29.9608V40.9747C120.659 43.5621 120.857 45.4864 121.319 46.6144C121.715 47.7422 122.508 48.3394 123.631 48.3394C124.687 48.3394 125.413 47.8086 125.876 46.6144Z" fill="#121212"/>
<path d="M238.867 38.1884V39.9798C238.867 42.2357 238.932 43.9609 239.065 45.0887C239.197 46.2167 239.461 47.0791 239.923 47.5437C240.32 48.0745 240.98 48.3397 241.905 48.3397C243.092 48.3397 243.886 47.8753 244.347 46.9465C244.811 46.0177 245.007 44.4917 245.075 42.3021L251.876 42.7002C251.942 43.0319 251.942 43.4301 251.942 43.9609C251.942 47.2119 251.083 49.6667 249.301 51.2591C247.517 52.8515 245.007 53.6477 241.772 53.6477C237.876 53.6477 235.17 52.3871 233.585 49.9321C232 47.4773 231.207 43.6955 231.207 38.5202V32.3498C231.207 27.0419 232 23.1937 233.65 20.7389C235.301 18.2839 238.075 17.0896 241.971 17.0896C244.677 17.0896 246.791 17.6204 248.245 18.6156C249.697 19.6109 250.687 21.2033 251.281 23.2601C251.876 25.3831 252.14 28.3025 252.14 32.018V38.0558H238.867V38.1884ZM239.857 23.3263C239.461 23.8571 239.197 24.6533 239.065 25.7813C238.932 26.9091 238.867 28.6343 238.867 30.9566V33.4778H244.677V30.9566C244.677 28.7005 244.612 26.9755 244.48 25.7813C244.347 24.5869 244.017 23.7909 243.621 23.3263C243.226 22.8619 242.565 22.5965 241.772 22.5965C240.847 22.5303 240.253 22.7957 239.857 23.3263Z" fill="#121212"/>
<path d="M97.6796 37.5249L88.6987 4.81519H96.5571L99.7267 19.6109C100.519 23.26 101.114 26.3784 101.51 28.966H101.708C101.972 27.1082 102.566 24.0562 103.491 19.6773L106.793 4.81519H114.651L105.538 37.5249V53.1832H97.7456V37.5249H97.6796Z" fill="#121212"/>
<path d="M160.088 17.8859V53.2498H153.881L153.22 48.9369H153.022C151.371 52.1882 148.796 53.8468 145.428 53.8468C143.117 53.8468 141.4 53.0506 140.277 51.5246C139.155 49.9985 138.626 47.6101 138.626 44.2927V17.8859H146.551V43.8281C146.551 45.4205 146.749 46.5485 147.079 47.2119C147.409 47.8755 148.003 48.2071 148.796 48.2071C149.456 48.2071 150.117 48.0081 150.777 47.5437C151.437 47.1457 151.9 46.6149 152.164 45.9513V17.8859H160.088Z" fill="#121212"/>
<path d="M200.7 17.8859V53.2498H194.493L193.833 48.9369H193.634C191.984 52.1882 189.408 53.8468 186.04 53.8468C183.729 53.8468 182.012 53.0506 180.89 51.5246C179.767 49.9985 179.239 47.6101 179.239 44.2927V17.8859H187.163V43.8281C187.163 45.4205 187.361 46.5485 187.692 47.2119C188.022 47.8755 188.615 48.2071 189.408 48.2071C190.068 48.2071 190.729 48.0081 191.389 47.5437C192.049 47.1457 192.512 46.6149 192.777 45.9513V17.8859H200.7Z" fill="#121212"/>
<path d="M181.611 11.251H173.752V53.1832H166.026V11.251H158.168V4.81519H181.611V11.251Z" fill="#121212"/>
<path d="M226.912 23.5251C226.451 21.2693 225.659 19.6769 224.601 18.6817C223.545 17.6865 222.026 17.1557 220.177 17.1557C218.725 17.1557 217.337 17.5538 216.082 18.4163C214.829 19.2125 213.837 20.3405 213.177 21.6675H213.111V3.02344H205.451V53.183H211.99L212.781 49.8655H212.98C213.575 51.0599 214.499 51.9887 215.752 52.7186C217.007 53.3822 218.329 53.7802 219.847 53.7802C222.555 53.7802 224.47 52.5196 225.725 50.0647C226.98 47.6097 227.64 43.6953 227.64 38.4536V32.8804C227.574 28.8332 227.375 25.7147 226.912 23.5251ZM219.65 37.9228C219.65 40.5104 219.517 42.5009 219.32 43.9605C219.121 45.4203 218.725 46.4819 218.262 47.0789C217.735 47.6761 217.074 48.0079 216.281 48.0079C215.621 48.0079 215.026 47.8751 214.499 47.5433C213.97 47.2117 213.507 46.7473 213.177 46.1501V26.1127C213.441 25.1839 213.905 24.3877 214.565 23.7243C215.225 23.1271 215.951 22.7953 216.677 22.7953C217.47 22.7953 218.13 23.1271 218.526 23.7243C218.989 24.3877 219.252 25.4493 219.451 26.9089C219.65 28.435 219.715 30.5582 219.715 33.2784V37.9228H219.65Z" fill="#121212"/>
</g>
<defs>
<clipPath id="clip0_193_817">
<rect width="253.21" height="58.1446" fill="white" transform="translate(0 0.7948)"/>
</clipPath>
</defs>
</svg>
