<svg width="293" height="59" viewBox="0 0 293 59" fill="none" xmlns="http://www.w3.org/2000/svg">
<g clip-path="url(#clip0_193_834)">
<path d="M23.5448 9.75918C20.1293 9.75918 19.1418 11.2812 19.1418 14.6382V20.2072H28.2521L27.339 29.2042H19.1453V56.5083H8.21215V29.2042H0.84668V20.2072H8.21215V14.7911C8.21215 5.71584 11.8542 0.92214 22.0158 0.92214C24.1452 0.917122 26.2729 1.0442 28.3866 1.30265V9.76985L23.5448 9.75918Z" fill="#121212"/>
<path d="M29.0029 37.2126C29.0029 27.0705 33.7847 19.4318 43.8047 19.4318C49.2695 19.4318 52.6072 22.2554 54.2035 25.7617V20.207H64.6765V56.5083H54.2035V51.0176C52.685 54.5277 49.2695 57.273 43.8047 57.273C33.7847 57.273 29.0029 49.645 29.0029 39.492V37.2126ZM39.9326 39.6556C39.9326 45.0681 41.9041 48.6528 46.9902 48.6528C51.4711 48.6528 53.7468 45.374 53.7468 40.189V36.5441C53.7468 31.3591 51.4711 28.0803 46.9902 28.0803C41.9041 28.0803 39.9326 31.665 39.9326 37.0775V39.6556Z" fill="#121212"/>
<path d="M87.4516 19.4429C91.699 19.4429 95.7231 20.3604 97.9248 21.8824L95.4968 29.6633C93.2194 28.5736 90.7313 28.0005 88.2092 27.9848C82.2876 27.9848 79.7146 31.4164 79.7146 37.2911V39.4248C79.7146 45.2995 82.2948 48.7311 88.2092 48.7311C90.7313 48.7154 93.2194 48.1424 95.4968 47.0526L97.9248 54.8299C95.7231 56.3556 91.7025 57.2731 87.4516 57.2731C74.6214 57.2731 68.7778 50.3314 68.7778 39.1971V37.5188C68.7778 26.3845 74.6214 19.4429 87.4516 19.4429Z" fill="#121212"/>
<path d="M99.3677 39.745V36.5444C99.3677 26.2494 105.211 19.4749 117.132 19.4749C128.366 19.4749 133.3 26.3383 133.3 36.4058V42.2022H110.294C110.524 47.1595 112.725 49.3714 118.788 49.3714C122.891 49.3714 127.216 48.5323 130.405 47.1595L132.404 54.6808C129.52 56.21 123.598 57.3515 118.364 57.3515C104.528 57.3479 99.3677 50.4134 99.3677 39.745ZM110.297 35.0152H123.506V34.1014C123.506 30.1363 121.914 26.989 117.136 26.989C112.198 26.9926 110.297 30.122 110.297 35.0011V35.0152Z" fill="#121212"/>
<path d="M173.814 39.5029C173.814 49.645 168.958 57.2837 158.949 57.2837C153.484 57.2837 149.69 54.5383 148.171 51.0283V56.519H137.851V1.97815L148.78 0.982422V25.2355C150.373 22.035 153.866 19.4389 158.952 19.4389C168.972 19.4389 173.818 27.0669 173.818 37.2197L173.814 39.5029ZM162.885 36.985C162.885 31.8749 160.913 28.0627 155.675 28.0627C151.194 28.0627 148.766 31.2632 148.766 36.4516V40.2638C148.766 45.4486 151.194 48.6528 155.675 48.6528C160.913 48.6528 162.885 44.8406 162.885 39.7304V36.985Z" fill="#121212"/>
<path d="M177.469 39.272V37.444C177.469 26.9926 183.391 19.4429 195.46 19.4429C207.53 19.4429 213.455 26.9926 213.455 37.444V39.272C213.455 49.7198 207.534 57.2731 195.464 57.2731C183.394 57.2731 177.469 49.7198 177.469 39.272ZM202.522 36.6795C202.522 31.875 200.547 28.063 195.443 28.063C190.338 28.063 188.381 31.875 188.381 36.6795V40.0365C188.381 44.8409 190.357 48.6529 195.443 48.6529C200.528 48.6529 202.522 44.8409 202.522 40.0365V36.6795Z" fill="#121212"/>
<path d="M217.088 39.272V37.444C217.088 26.9926 223.009 19.4429 235.077 19.4429C247.147 19.4429 253.068 26.9926 253.068 37.444V39.272C253.068 49.7198 247.147 57.2731 235.077 57.2731C223.009 57.2731 217.088 49.7198 217.088 39.272ZM242.139 36.6795C242.139 31.875 240.164 28.063 235.077 28.063C229.992 28.063 228.021 31.875 228.021 36.6795V40.0365C228.021 44.8409 229.992 48.6529 235.077 48.6529C240.164 48.6529 242.139 44.8409 242.139 40.0365V36.6795Z" fill="#121212"/>
<path d="M268.097 37.5185L278.874 20.207H290.488L279.18 38.1301L290.944 56.5083H279.332L268.097 38.7275V56.5083H257.164V1.97815L268.097 0.982422V37.5185Z" fill="#121212"/>
</g>
<defs>
<clipPath id="clip0_193_834">
<rect width="292.598" height="58.1446" fill="white" transform="translate(0.034668 0.794678)"/>
</clipPath>
</defs>
</svg>
