<svg width="241" height="80" viewBox="0 0 241 80" fill="none" xmlns="http://www.w3.org/2000/svg">
<path d="M31.5189 1.24866H33.6266C40.9434 1.40847 48.1409 4.36508 53.3106 9.59909C51.4019 11.5568 49.4533 13.4347 47.5842 15.3924C44.6813 12.7555 41.182 10.7178 37.3645 9.99861C31.7177 8.79999 25.6336 9.87876 20.9013 13.115C15.7318 16.5111 12.2325 22.2645 11.4769 28.4175C10.6418 34.4904 12.3517 40.8832 16.2886 45.5977C20.0663 50.1925 25.8324 53.0691 31.7973 53.2689C37.3645 53.5887 43.1703 51.8706 47.2264 47.955C50.4076 45.1982 51.8791 41.003 52.3562 36.9276C45.7551 36.9276 39.1539 36.9676 32.5528 36.9276V28.6972H60.3492C61.7807 37.5271 59.7128 47.4756 53.0322 53.7884C48.5785 58.2633 42.4148 60.9003 36.1316 61.4196C30.0475 62.0189 23.7645 60.8603 18.3564 57.9036C11.8746 54.4277 6.70499 48.5543 4.15998 41.6422C1.77403 35.2897 1.73426 28.0979 3.96115 21.7052C5.98921 15.8719 9.88626 10.7178 14.8968 7.12192C19.7084 3.56601 25.554 1.60824 31.5189 1.24866Z" fill="#121212"/>
<path d="M190.982 3.32617H199.492V60.381C196.669 60.381 193.805 60.421 190.982 60.3411C191.021 41.3627 190.982 22.3444 190.982 3.32617Z" fill="#121212"/>
<path d="M79.279 23.1037C84.5281 22.1049 90.2144 23.2235 94.549 26.3798C98.4858 29.1768 101.23 33.5717 102.065 38.3662C103.138 43.9198 101.786 49.9929 98.2074 54.3879C94.3502 59.3022 88.0275 61.9392 81.8638 61.5397C76.217 61.22 70.7293 58.3833 67.389 53.7487C63.6112 48.6344 62.6965 41.6024 64.7644 35.6094C66.8323 29.1768 72.6779 24.2624 79.279 23.1037ZM80.4719 30.6949C78.3246 31.2544 76.3363 32.4929 74.9046 34.2509C71.0474 38.8856 71.286 46.4369 75.541 50.752C77.9666 53.2291 81.6252 54.3879 85.0053 53.7087C88.1467 53.1492 90.8906 51.0316 92.4016 48.2349C95.0262 43.4803 94.2707 36.9278 90.2544 33.212C87.6696 30.8148 83.8917 29.816 80.4719 30.6949Z" fill="#121212"/>
<path d="M121.428 23.1035C127.432 21.945 133.994 23.6229 138.487 27.8581C145.804 34.4506 146.599 46.7965 140.356 54.3878C136.578 59.1822 130.454 61.8192 124.41 61.5395C118.644 61.3797 112.957 58.5031 109.538 53.7485C105.68 48.5144 104.845 41.3227 107.032 35.2096C109.219 28.9769 114.946 24.2224 121.428 23.1035ZM122.62 30.6948C120.473 31.2543 118.485 32.4928 117.053 34.2108C113.236 38.7656 113.395 46.1971 117.491 50.5521C119.917 53.1491 123.694 54.4277 127.194 53.7086C130.295 53.1091 133.079 51.0315 134.59 48.2348C137.175 43.4403 136.419 36.8877 132.363 33.1721C129.778 30.7747 126.001 29.8159 122.62 30.6948Z" fill="#121212"/>
<path d="M157.178 25.421C161.751 22.5443 167.835 21.7453 172.766 24.2225C174.317 24.9016 175.59 26.0604 176.822 27.219C176.862 26.1403 176.822 25.0215 176.862 23.9029C179.526 23.9428 182.191 23.9029 184.895 23.9428V59.1825C184.855 64.4966 183.503 70.1302 179.685 74.0056C175.51 78.2808 169.108 79.5993 163.342 78.7204C157.178 77.8014 151.81 73.2865 149.424 67.573C151.81 66.4144 154.315 65.4953 156.78 64.4167C158.172 67.6928 160.996 70.4898 164.535 71.129C168.074 71.7682 172.17 70.8893 174.476 67.9327C176.942 64.8961 176.942 60.7408 176.822 57.025C174.993 58.823 172.885 60.4212 170.34 61.0205C164.813 62.5787 158.729 60.6609 154.474 56.9051C150.179 53.1494 147.634 47.3561 147.873 41.6026C147.992 35.0901 151.651 28.8172 157.178 25.421ZM165.41 30.5353C162.984 30.9348 160.717 32.2933 159.166 34.171C155.428 38.6461 155.428 45.7978 159.206 50.1928C161.353 52.7898 164.813 54.2282 168.153 53.8687C171.295 53.5491 174.198 51.5513 175.749 48.7943C178.373 44.1197 177.936 37.767 174.397 33.6916C172.21 31.1745 168.71 29.9358 165.41 30.5353Z" fill="#121212"/>
<path d="M209.707 27.4585C214.478 22.9836 221.834 21.4653 227.958 23.8226C233.765 26.02 237.462 31.5738 239.332 37.2871C230.702 40.8831 222.114 44.4391 213.484 48.0349C214.677 50.3123 216.506 52.3899 218.972 53.2289C222.431 54.4675 226.567 54.0281 229.47 51.7107C230.624 50.8316 231.537 49.6731 232.413 48.5542C234.6 50.0326 236.787 51.471 238.974 52.9492C235.872 57.6239 230.663 60.9002 225.057 61.4196C218.852 62.1786 212.252 59.7814 208.234 54.907C201.634 47.2359 202.27 34.3705 209.707 27.4585ZM213.96 34.8499C212.61 36.8077 212.053 39.205 212.092 41.5623C217.858 39.165 223.624 36.7678 229.389 34.3306C228.437 32.0931 226.13 30.7346 223.783 30.3751C220.006 29.6959 216.069 31.7336 213.96 34.8499Z" fill="#121212"/>
</svg>
