<svg width="289" height="76" viewBox="0 0 289 76" fill="none" xmlns="http://www.w3.org/2000/svg">
<g clip-path="url(#clip0_193_843)">
<path d="M93.6062 29.3112C93.6062 24.1236 88.5853 18.6138 79.8968 18.6138C70.14 18.6138 59.4217 25.8051 57.7837 40.1518C56.1101 54.6418 65.0834 61.0816 74.1281 61.0816C83.1728 61.0816 87.9087 57.5397 92.7516 52.817C88.5853 47.5577 83.2084 49.9906 82.1757 50.5272C81.0362 51.0997 79.5763 51.8869 76.5852 51.8869C73.0956 51.8869 69.5345 50.3127 69.5345 43.7654C91.8969 41.5471 93.6062 34.499 93.6062 29.3112ZM82.5319 30.1699C82.3893 31.7799 81.7484 34.5349 70.4249 36.0733C72.8107 27.5581 77.3686 26.9142 79.4695 26.9142C81.4279 26.9142 82.6742 28.4526 82.5319 30.1699ZM44.6439 31.5652C44.6439 31.5652 39.8367 46.7349 39.4451 47.9871C39.3027 46.6991 35.7773 19.4724 35.7773 19.4724C27.5873 19.4724 23.2074 25.34 20.8928 31.5295C20.8928 31.5295 15.053 46.7349 14.5545 48.0229C14.5189 46.8422 13.6642 31.7083 13.6642 31.7083C13.1657 24.1236 6.25758 19.5082 0.666992 19.5082L7.43268 60.7597C16.0144 60.7239 20.6436 54.8922 23.065 48.7026C23.065 48.7026 28.2282 35.2861 28.4419 34.678C28.4775 35.2504 32.1453 60.7597 32.1453 60.7597C40.7627 60.7597 45.3918 55.2857 47.8845 49.3109L59.9558 19.5082C51.4454 19.5082 46.9585 25.34 44.6439 31.5652ZM125.227 18.5422C119.921 18.5422 115.862 21.4401 112.443 25.6978V25.662L115.506 0.868164C108.455 0.868164 102.722 7.02189 101.618 16.1809L96.2769 60.4377C100.336 60.4377 104.645 59.257 106.96 56.2517C109.025 58.9349 112.123 61.0816 116.716 61.0816C128.61 61.0816 136.764 47.2001 136.764 34.177C136.693 22.2988 130.96 18.5422 125.227 18.5422ZM124.123 39.8298C122.877 47.0928 118.853 52.03 114.971 52.03C111.055 52.03 109.381 50.2768 109.381 50.2768C110.129 43.9085 110.592 40.0087 112.016 36.6457C113.44 33.2825 116.823 27.9159 120.349 27.9159C123.803 27.9159 125.369 32.5313 124.123 39.8298ZM166.462 19.5082H158.165L158.201 19.0789C158.77 13.6407 160.052 10.7785 164.29 10.3134C167.174 10.0272 168.456 8.52455 168.777 6.87878C169.026 5.59079 169.809 1.11861 169.809 1.11861C153.144 1.01127 147.91 8.23833 146.557 19.2578L146.521 19.5082H146.343C143.637 19.5082 140.645 22.585 140.147 26.4848L139.969 27.9159H145.524L140.859 66.6273L139.435 73.568C139.613 73.568 139.827 73.6039 140.005 73.6039C147.803 73.3177 152.788 67.1281 153.892 58.1479L157.524 27.9159H160.124C162.688 27.9159 165.679 25.34 166.213 21.0466L166.462 19.5082ZM209.621 18.7927C200.042 18.7927 190.996 25.8766 188.22 37.0034C185.442 48.1302 189.643 61.2964 203.744 61.2964C217.81 61.2964 225.929 47.5936 225.929 36.1805C225.929 24.8392 218.273 18.7927 209.621 18.7927ZM213.501 39.4721C213.002 44.5168 210.795 52.1731 204.742 52.1731C198.652 52.1731 199.507 43.2288 200.113 38.9711C200.753 34.4274 203.281 27.9518 208.73 27.9518C213.608 27.9518 214.072 33.7835 213.501 39.4721ZM273.253 31.5652C273.253 31.5652 268.446 46.7349 268.054 47.9871C267.912 46.6991 264.387 19.4724 264.387 19.4724C256.196 19.4724 251.817 25.34 249.502 31.5295C249.502 31.5295 243.662 46.7349 243.164 48.0229C243.129 46.8422 242.274 31.7083 242.274 31.7083C241.775 24.1236 234.867 19.5082 229.275 19.5082L236.007 60.7597C244.588 60.7239 249.217 54.8922 251.639 48.7026C251.639 48.7026 256.802 35.2861 256.98 34.678C257.052 35.2504 260.683 60.7597 260.683 60.7597C269.301 60.7597 273.93 55.2857 276.423 49.3109L288.493 19.5082C280.019 19.5082 275.532 25.34 273.253 31.5652ZM174.296 1.11861L167.317 57.6828L165.892 64.6594C166.07 64.6594 166.284 64.6952 166.462 64.6952C173.975 64.5879 179.317 57.969 180.314 49.6329L184.338 17.1827C185.548 7.27233 179.673 1.11861 174.296 1.11861Z" fill="#121212"/>
</g>
<defs>
<clipPath id="clip0_193_843">
<rect width="288.847" height="75.0252" fill="white" transform="translate(0.00488281 0.35437)"/>
</clipPath>
</defs>
</svg>
