<svg width="222" height="76" viewBox="0 0 222 76" fill="none" xmlns="http://www.w3.org/2000/svg">
<g clip-path="url(#clip0_193_845)">
<path fill-rule="evenodd" clip-rule="evenodd" d="M216.49 26.3286L207.638 17.357H191.195V5.81794H177.28V58.3783H191.195V31.4558H202.575V58.3783H216.49V26.3286ZM172.224 17.357H150.723L141.87 26.3286V49.4028L150.723 58.3783H172.224V44.2783H155.781V31.4558H172.224V17.357V17.357ZM136.811 17.357H125.43V5.81794H111.515V49.4028L120.369 58.3783H136.811V44.2783H125.43V31.4558H136.811V17.357V17.357ZM106.456 5.81794H92.5457V12.2299H106.456V5.81794ZM106.456 17.357H92.5457V58.3777H106.456V17.357V17.357ZM87.4867 17.357H73.5747V44.2783H68.5171V17.357H54.6044V44.2783H49.5474V17.357H35.6328V58.3783H78.635L87.4867 49.4028V17.357V17.357ZM30.5739 17.357H19.1923V5.81794H5.28031V49.4028L14.1333 58.3783H30.5739V44.2783H19.1923V31.4558H30.5739V17.357V17.357ZM221.545 23.7643V62.2221L202.575 75.0426H189.929V68.6307L181.076 75.0426H169.695V68.6307L163.373 75.0426H143.137L136.811 68.6307L135.545 75.0426H117.841L110.601 68.6307L110.196 75.0426H90.1294L89.4198 68.6307L83.9878 75.0426H53.3382L47.0137 72.4784V75.0426H30.5739L11.6022 63.5022L0.220703 51.9703V0.691426H24.2519L35.6328 12.2299H87.4867V0.691426H130.487V12.2299H141.87V18.6378L148.196 12.2299H160.84L172.224 0.691426H196.254V12.2299H210.166L221.545 23.7643Z" fill="#121212"/>
</g>
<defs>
<clipPath id="clip0_193_845">
<rect width="221.324" height="74.3512" fill="white" transform="matrix(1 0 0 -1 0.223633 75.0426)"/>
</clipPath>
</defs>
</svg>
