<svg width="17" height="14" viewBox="0 0 17 14" fill="none" xmlns="http://www.w3.org/2000/svg">
<g clip-path="url(#clip0_159_1364)">
<path d="M16.1671 2.01766C15.5671 2.28303 14.9338 2.4489 14.2672 2.54841C14.9338 2.15034 15.4671 1.52007 15.7004 0.757108C15.0671 1.122 14.3672 1.38738 13.6006 1.55324C13.0006 0.92297 12.134 0.524902 11.2007 0.524902C9.40079 0.524902 7.9342 1.98448 7.9342 3.77579C7.9342 4.04116 7.96753 4.27337 8.0342 4.50558C5.33435 4.37289 2.90115 3.07917 1.26791 1.08883C1.00126 1.58642 0.834598 2.11717 0.834598 2.71427C0.834598 3.84213 1.40123 4.8373 2.30118 5.4344C1.76788 5.40123 1.26791 5.26854 0.801267 5.03633V5.06951C0.801267 6.66178 1.93454 7.98867 3.43445 8.28722C3.1678 8.35356 2.86782 8.38673 2.56783 8.38673C2.36785 8.38673 2.13453 8.35356 1.93454 8.32039C2.36785 9.61411 3.56778 10.5761 5.00103 10.5761C3.86776 11.4386 2.46784 11.9693 0.934593 11.9693C0.667941 11.9693 0.401289 11.9693 0.167969 11.9362C1.63455 12.865 3.33446 13.3958 5.20102 13.3958C11.234 13.3958 14.5338 8.41991 14.5338 4.10751C14.5338 3.97482 14.5338 3.80896 14.5338 3.67627C15.1671 3.24503 15.7338 2.6811 16.1671 2.01766Z" fill="#121212"/>
</g>
<defs>
<clipPath id="clip0_159_1364">
<rect width="15.9991" height="12.8708" fill="white" transform="translate(0.167969 0.524902)"/>
</clipPath>
</defs>
</svg>
