<svg width="20" height="20" viewBox="0 0 20 20" fill="none" xmlns="http://www.w3.org/2000/svg">
<path d="M9.91919 2.04604C12.5089 2.04604 12.8156 2.0557 13.8387 2.10212C14.4538 2.10962 15.0631 2.22203 15.64 2.43447C16.0584 2.59505 16.4384 2.84104 16.7555 3.15661C17.0725 3.47218 17.3197 3.85033 17.4811 4.26672C17.6945 4.84091 17.8075 5.44727 17.815 6.05945C17.8612 7.07763 17.8714 7.38285 17.8714 9.96023C17.8714 12.5376 17.8617 12.8428 17.815 13.861C17.8075 14.4732 17.6945 15.0796 17.4811 15.6537C17.3197 16.0701 17.0725 16.4483 16.7555 16.7639C16.4384 17.0794 16.0584 17.3254 15.64 17.486C15.0631 17.6984 14.4538 17.8109 13.8387 17.8183C12.8161 17.8643 12.5094 17.8744 9.91919 17.8744C7.32897 17.8744 7.02228 17.8648 5.99968 17.8183C5.38456 17.8109 4.77529 17.6984 4.19835 17.486C3.77996 17.3254 3.4 17.0794 3.08291 16.7639C2.76583 16.4483 2.51866 16.0701 2.3573 15.6537C2.14384 15.0796 2.03089 14.4732 2.02336 13.861C1.97718 12.8428 1.96702 12.5376 1.96702 9.96023C1.96702 7.38285 1.97671 7.07763 2.02336 6.05945C2.03089 5.44727 2.14384 4.84091 2.3573 4.26672C2.51866 3.85033 2.76583 3.47218 3.08291 3.15661C3.4 2.84104 3.77996 2.59505 4.19835 2.43447C4.77529 2.22203 5.38456 2.10962 5.99968 2.10212C7.02274 2.05616 7.32943 2.04604 9.91919 2.04604ZM9.91919 0.306641C7.28648 0.306641 6.95485 0.317673 5.92024 0.364559C5.1152 0.380495 4.31872 0.532193 3.56465 0.8132C2.91779 1.05575 2.3319 1.43586 1.84785 1.92699C1.35392 2.4089 0.971663 2.99233 0.727793 3.63651C0.445438 4.38697 0.293012 5.17966 0.277 5.98084C0.230812 7.00959 0.219727 7.33964 0.219727 9.95977C0.219727 12.5799 0.230812 12.91 0.277923 13.9396C0.293936 14.7408 0.446362 15.5335 0.728717 16.284C0.972316 16.9281 1.35425 17.5115 1.84785 17.9935C2.33216 18.4847 2.91838 18.8648 3.56558 19.1073C4.31964 19.3883 5.11613 19.54 5.92116 19.5559C6.95577 19.6019 7.28601 19.6138 9.92011 19.6138C12.5542 19.6138 12.8844 19.6028 13.9191 19.5559C14.7241 19.54 15.5206 19.3883 16.2746 19.1073C16.9188 18.8588 17.5037 18.4792 17.992 17.9929C18.4803 17.5066 18.8613 16.9242 19.1106 16.283C19.3929 15.5326 19.5454 14.7399 19.5614 13.9387C19.6076 12.91 19.6186 12.5799 19.6186 9.95977C19.6186 7.33964 19.6076 7.00959 19.5604 5.97993C19.5444 5.17874 19.392 4.38605 19.1097 3.63559C18.8661 2.99149 18.4841 2.40807 17.9905 1.92607C17.5062 1.43483 16.92 1.05472 16.2728 0.812281C15.5187 0.531274 14.7222 0.379576 13.9172 0.36364C12.8835 0.317673 12.5519 0.306641 9.91919 0.306641Z" fill="#121212"/>
<path d="M9.91743 5.00293C8.9323 5.00293 7.96929 5.29366 7.15019 5.83835C6.33108 6.38305 5.69267 7.15724 5.31567 8.06304C4.93868 8.96883 4.84004 9.96554 5.03223 10.9271C5.22442 11.8887 5.69881 12.772 6.3954 13.4653C7.09199 14.1585 7.9795 14.6306 8.9457 14.8219C9.9119 15.0132 10.9134 14.915 11.8235 14.5398C12.7337 14.1646 13.5116 13.5293 14.0589 12.7141C14.6062 11.8989 14.8983 10.9405 14.8983 9.96004C14.8983 8.64534 14.3736 7.38447 13.4395 6.45484C12.5054 5.5252 11.2384 5.00293 9.91743 5.00293ZM9.91743 13.1778C9.27797 13.1778 8.65287 12.989 8.12119 12.6355C7.5895 12.2819 7.17509 11.7794 6.93038 11.1914C6.68568 10.6034 6.62165 9.95647 6.7464 9.3323C6.87115 8.70812 7.17908 8.13478 7.63124 7.68478C8.08341 7.23477 8.6595 6.92832 9.28667 6.80416C9.91384 6.68 10.5639 6.74373 11.1547 6.98727C11.7455 7.23081 12.2504 7.64323 12.6057 8.17238C12.961 8.70153 13.1506 9.32364 13.1506 9.96004C13.1506 10.8134 12.8099 11.6319 12.2036 12.2353C11.5973 12.8387 10.7749 13.1778 9.91743 13.1778Z" fill="#121212"/>
<path d="M15.0956 5.96519C15.7384 5.96519 16.2595 5.44657 16.2595 4.80681C16.2595 4.16706 15.7384 3.64844 15.0956 3.64844C14.4528 3.64844 13.9316 4.16706 13.9316 4.80681C13.9316 5.44657 14.4528 5.96519 15.0956 5.96519Z" fill="#121212"/>
</svg>
