<svg width="20" height="19" viewBox="0 0 20 19" fill="none" xmlns="http://www.w3.org/2000/svg">
<path fill-rule="evenodd" clip-rule="evenodd" d="M9.89722 0.950684C4.75562 0.950684 0.619141 5.0674 0.619141 10.1844C0.619141 14.2627 3.28659 17.7254 6.95916 18.9565C7.42306 19.0335 7.5777 18.7642 7.5777 18.4948C7.5777 18.264 7.5777 17.6869 7.5777 16.9174C4.98757 17.4945 4.44635 15.6862 4.44635 15.6862C4.0211 14.609 3.40256 14.3396 3.40256 14.3396C2.55207 13.7625 3.47988 13.7625 3.47988 13.7625C4.40769 13.8395 4.91025 14.7244 4.91025 14.7244C5.72208 16.1479 7.07514 15.7247 7.61636 15.4939C7.69367 14.8783 7.92563 14.4935 8.19624 14.2627C6.14733 14.0319 3.98244 13.2239 3.98244 9.68429C3.98244 8.68396 4.33037 7.83753 4.94891 7.22195C4.87159 6.99111 4.52366 6.06773 5.02623 4.75961C5.02623 4.75961 5.7994 4.52877 7.5777 5.72146C8.31221 5.52909 9.12404 5.41367 9.89722 5.41367C10.6704 5.41367 11.4822 5.52909 12.2167 5.72146C13.995 4.52877 14.7682 4.75961 14.7682 4.75961C15.2708 6.02925 14.9615 6.95263 14.8455 7.22195C15.4254 7.87601 15.812 8.68396 15.812 9.68429C15.812 13.2239 13.6471 13.9934 11.5595 14.2242C11.9075 14.4935 12.1781 15.0707 12.1781 15.9171C12.1781 17.1482 12.1781 18.1486 12.1781 18.4564C12.1781 18.6872 12.3327 18.995 12.8353 18.9181C16.5078 17.7254 19.1753 14.2627 19.1753 10.1844C19.1753 5.0674 15.0388 0.950684 9.89722 0.950684Z" fill="#121212"/>
</svg>
