<svg width="15" height="21" viewBox="0 0 15 21" fill="none" xmlns="http://www.w3.org/2000/svg">
<g opacity="0.6" clip-path="url(#clip0_159_1220)">
<path d="M2.08268 20.3334C1.62435 20.3334 1.23185 20.1704 0.905182 19.8442C0.579071 19.5176 0.416016 19.1251 0.416016 18.6667V7.00008H2.08268V18.6667H11.2493V20.3334H2.08268ZM5.41602 17.0001C4.95768 17.0001 4.56546 16.837 4.23935 16.5109C3.91268 16.1842 3.74935 15.7917 3.74935 15.3334V5.33341C3.74935 4.87508 3.91268 4.48258 4.23935 4.15591C4.56546 3.8298 4.95768 3.66675 5.41602 3.66675H12.916C13.3743 3.66675 13.7668 3.8298 14.0935 4.15591C14.4196 4.48258 14.5827 4.87508 14.5827 5.33341V15.3334C14.5827 15.7917 14.4196 16.1842 14.0935 16.5109C13.7668 16.837 13.3743 17.0001 12.916 17.0001H5.41602Z" fill="#64748B"/>
</g>
<defs>
<clipPath id="clip0_159_1220">
<rect width="14.1667" height="19.6667" fill="white" transform="translate(0.416016 0.666748)"/>
</clipPath>
</defs>
</svg>
