<svg width="185" height="185" viewBox="0 0 185 185" fill="none" xmlns="http://www.w3.org/2000/svg">
<path fill-rule="evenodd" clip-rule="evenodd" d="M63.2017 132.14L131.306 64.0353C129.717 61.7856 127.916 59.64 125.903 57.6264C124.213 55.9364 122.43 54.3961 120.57 53.0055L52.1719 121.404C53.5625 123.263 55.1028 125.046 56.7928 126.736C58.8064 128.75 60.952 130.551 63.2017 132.14ZM50.7685 144.573C48.5906 142.882 46.4941 141.036 44.4936 139.035C42.8125 137.354 41.2407 135.606 39.7781 133.798L27.0117 146.564L37.8945 157.447L50.7685 144.573ZM132.964 40.6117C134.772 42.0743 136.521 43.6461 138.202 45.3271C140.202 47.3276 142.048 49.4242 143.739 51.602L157.441 37.9004L146.558 27.0176L132.964 40.6117Z" fill="#121212"/>
<path fill-rule="evenodd" clip-rule="evenodd" d="M43.4836 99.9227H139.798C140.265 97.2087 140.509 94.418 140.509 91.5705C140.509 89.1804 140.337 86.8304 140.006 84.5321L43.2758 84.5321C42.9443 86.8304 42.7727 89.1804 42.7727 91.5705C42.7727 94.418 43.0162 97.2087 43.4836 99.9227ZM25.9003 99.9227C25.5563 97.1871 25.379 94.3995 25.379 91.5705C25.379 89.193 25.5042 86.8448 25.7484 84.5321H7.69542L7.69542 99.9227L25.9003 99.9227ZM157.533 84.5321C157.777 86.8448 157.902 89.193 157.902 91.5705C157.902 94.3995 157.725 97.1871 157.381 99.9227L176.76 99.9227L176.76 84.5321L157.533 84.5321Z" fill="#121212"/>
<path fill-rule="evenodd" clip-rule="evenodd" d="M52.3188 63.2017L120.423 131.306C122.673 129.717 124.819 127.916 126.832 125.903C128.522 124.213 130.062 122.43 131.453 120.57L63.0546 52.1719C61.1952 53.5625 59.4122 55.1028 57.7223 56.7928C55.7087 58.8064 53.9075 60.952 52.3188 63.2017ZM39.8856 50.7684C41.5767 48.5906 43.4226 46.494 45.4231 44.4935C47.1041 42.8125 48.8529 41.2407 50.6608 39.7781L37.8944 27.0117L27.0116 37.8945L39.8856 50.7684ZM143.847 132.964C142.384 134.772 140.812 136.521 139.131 138.202C137.131 140.202 135.034 142.048 132.856 143.739L146.558 157.441L157.441 146.558L143.847 132.964Z" fill="#121212"/>
<path fill-rule="evenodd" clip-rule="evenodd" d="M84.5353 43.4882L84.5353 139.803C87.2487 140.27 90.0387 140.514 92.8856 140.514C95.2763 140.514 97.627 140.342 99.9259 140.01L99.9259 43.281C97.627 42.9493 95.2763 42.7776 92.8856 42.7776C90.0387 42.7776 87.2487 43.021 84.5353 43.4882ZM84.5353 25.905C87.2703 25.5611 90.0573 25.3839 92.8856 25.3839C95.2637 25.3839 97.6125 25.5091 99.9259 25.7535L99.9259 7.7003L84.5353 7.70031L84.5353 25.905ZM99.9259 157.538C97.6125 157.782 95.2637 157.907 92.8856 157.907C90.0573 157.907 87.2703 157.73 84.5353 157.386L84.5353 176.765L99.9259 176.765L99.9259 157.538Z" fill="#121212"/>
</svg>
